<svg id="logo-elysee-rond" xmlns="http://www.w3.org/2000/svg" viewBox="0 0 266 263"><path fill="#fff" class="st0" d="M88.54 245.64l-8.12-3.67c-4.02-1.82-7.52-1.11-9.11 2.42-1.55 3.43.19 6.61 4.23 8.43l10.1 4.58 6.67-14.72-2.01-.91-1.76 3.87zm-4.11 9.08l-7.79-3.52c-2.97-1.35-4.38-3.35-3.24-5.86 1.17-2.6 3.59-2.77 6.54-1.43l7.79 3.52-3.3 7.29zm-20.68-22.25l-6.83-5.33-.68-5.97-2.28-1.78.76 6.34c-2.78-1.35-5.51-.97-7.4 1.45-2.31 2.96-1.38 6.46 2.12 9.2l8.73 6.82 9.95-12.73-1.74-1.35-2.63 3.35zm-6.12 7.83l-6.73-5.27c-2.57-2.01-3.46-4.29-1.77-6.45 1.75-2.25 4.14-1.84 6.69.15l6.73 5.27-4.92 6.3zm-21.02-40.8l-1.59 1.28 8.82 10.95-4.31 3.47-8.64-10.73-1.57 1.26 8.65 10.73-3.55 2.86-8.75-10.86-1.59 1.28 10.14 12.57 12.59-10.15-10.2-12.66zm-13.76 16.54l1.46 1.8 4.48-.04-1.35-1.68-4.59-.08zm-2.05-36.6c1.55-.76 3.3.32 5.32 4.5 1.53 3.14 1.82 6.12.86 8.37l1.84 1.21c1.22-2.93.98-6.34-1.05-10.51-2.74-5.65-5.57-6.73-8.01-5.55-6.43 3.11 3.99 14.95-.15 16.95-1.38.67-3.03-.1-4.85-3.85-1.48-3.06-1.83-5.88-.86-8l-1.79-1.16c-1.26 2.69-.93 6.12.99 10.06 2.51 5.19 5.27 6.05 7.43 5 6.57-3.18-4.02-14.95.27-17.02zm-.5-15.39l-15.56 4.47.61 2.12 15.56-4.47-.61-2.12zm-3.61-19.21c-.73-7.06-4.24-10.07-9.28-9.55-4.77.49-7.55 4.15-6.82 11.22l.94 9.16 16.1-1.66-.94-9.17zm-13.35 8.41l-.73-7.09c-.55-5.39 1.47-8.23 5.07-8.6 3.79-.39 6.42 1.97 6.98 7.35l.73 7.09-12.05 1.25zm14.83-43.78l-2.02-.27-1.83 13.95-5.49-.73 1.8-13.66-1.99-.26-1.8 13.66-4.51-.6 1.82-13.83-2.02-.26L0 123.49l16.04 2.12 2.13-16.14zm3.03-11.69L8.9 93.02l18.03-9.7.69-1.77-15.21-5.9-.78 2.01 12.35 4.78L5.9 92.17l-.69 1.77 15.2 5.89.79-2.05zM25 69.09c4.26 2.99 9.35 1.46 13-3.76 2.24-3.19 3.07-6.67 1.97-9.61l-2.02.92c.83 2.48.15 5.08-1.57 7.53-2.74 3.91-6.62 5.43-10.03 3.03-3.41-2.39-3.29-6.53-.6-10.38 1.71-2.43 3.94-3.97 6.51-4.01l.18-2.22c-3.25.01-6.16 2.01-8.33 5.11-3.59 5.15-3.3 10.44.89 13.39zm35.96-28.52l-1.35-1.52L49.1 48.4l-3.68-4.13 10.29-9.16-1.33-1.5-10.29 9.16-3.03-3.4 10.41-9.27-1.35-1.52L38.06 39.3l10.75 12.08 12.15-10.81zm29.32-16.42c6.61-2.58 8.57-6.77 6.73-11.48-1.74-4.48-6.01-6.18-12.62-3.6l-8.57 3.35L81.7 27.5l8.58-3.35zm-5.04-13.22c5.04-1.97 8.32-.78 9.63 2.6 1.38 3.55-.19 6.71-5.23 8.69l-6.63 2.59-4.4-11.28 6.63-2.6zm39.58 5.21l-.28-2.02-13.94 1.93-.76-5.48 13.65-1.89-.28-1.99-13.65 1.89-.63-4.51 13.82-1.92-.28-2.02-16 2.22 2.22 16.02 16.13-2.23zm40.1 2.07l-13.02-2.64 2.81-13.86-2.16-.43-3.21 15.85 15.18 3.08.4-2zm11.68 2.24l10.32 4.59.41 4.32 2.33 1.03-1.8-18.64-1.99-.89L170.79 22l2.32 1.03 3.49-2.58zm9.24-6.91l.02.01.87 9.34-8.37-3.72 7.48-5.63zm26.84 28.2l6.19 6.09v6.02l2.07 2.04-.04-6.39c2.61 1.66 5.37 1.59 7.53-.6 2.64-2.69 2.1-6.28-1.05-9.39l-7.91-7.79-11.36 11.54 1.57 1.55 3-3.07zm6.98-7.09l6.11 6.01c2.33 2.29 2.96 4.65 1.02 6.62-2.01 2.04-4.33 1.35-6.64-.91l-6.1-6 5.61-5.72zm31.8 28.03l-1.24-1.97-4.47-.46 1.15 1.83 4.56.6zm-15.57 14.86l1.73-1.08-7.53-11.89 4.68-2.96 7.36 11.65 1.71-1.08-7.37-11.65 3.85-2.44 7.47 11.79 1.72-1.08-8.64-13.65-13.68 8.65 8.7 13.74zm5.06 11l4.03-1.4 2.92 8.42c1.44 4.17 4.36 6.23 8.03 4.95 3.55-1.23 4.67-4.68 3.21-8.87l-3.63-10.48-15.28 5.3.72 2.08zm13.45-4.66l2.8 8.08c1.06 3.08.58 5.48-2.03 6.38-2.69.94-4.48-.7-5.54-3.76l-2.8-8.08 7.57-2.62zm-5.79 38.08c.58 6.25 3.1 9.47 8.3 8.99l9.06-.85-.19-2.12-8.8.82c-4.17.39-5.92-2.09-6.37-7-.46-4.94.79-7.7 4.97-8.09l8.8-.82-.2-2.19-9.06.85c-5.22.48-7.09 4.14-6.51 10.41zm-.79 30.64c-.69 4.58.73 7.12 3.52 7.53 2.27.34 3.76-.99 4.61-2.93l.02.01c.23 2 1.2 3.33 2.98 3.6 2.54.38 4.24-1.59 4.89-5.94l1.65-11.03-16.01-2.4-1.66 11.16zm9.58 1.25l1.32-8.78 4.53.67-1.35 8.96c-.4 2.7-1.26 4.03-2.8 3.8-1.46-.2-2.18-1.4-1.7-4.65zm-7.67-.86l1.35-9.06 5.72.85-1.3 8.71c-.54 3.58-1.98 4.65-3.57 4.41-1.88-.27-2.65-1.94-2.2-4.91zm-11.26 30.17l1.9.74 4.8-12.38 13.19 5.1.8-2.05-15.09-5.85-5.6 14.44zm-5.4 9.43l13.97 8.15 1.11-1.91-13.97-8.14-1.11 1.9zm1.58 13.22c-3.93-3.37-9.17-2.29-13.54 2.8-1.94 2.25-3.07 4.56-3.4 6.71l-3.75 1.61 1.65 1.42 2.14-.91c.16 1.91 1.04 3.61 2.64 4.98 3.91 3.35 9.16 2.27 13.53-2.81 4.36-5.09 4.64-10.44.73-13.8zm-2.24 12.5c-3.34 3.89-7.36 5.08-10.52 2.36-1.35-1.16-1.98-2.59-2.05-4.13l7.06-2.97-1.65-1.42-5.1 2.12c.4-1.42 1.22-2.93 2.47-4.38 3.32-3.88 7.38-5.07 10.54-2.35 3.15 2.73 2.58 6.88-.75 10.77zm-32.89 9.85c-5.14 3.61-6.7 7.39-3.7 11.66l5.23 7.45 1.74-1.23-5.08-7.24c-2.41-3.43-1.12-6.18 2.92-9.02 4.06-2.85 7.09-3.13 9.49.31l5.07 7.24 1.8-1.26-5.23-7.45c-2.98-4.28-7.09-4.08-12.24-.46zm-31.69 16.32l.75 1.9 13.09-5.14 2.02 5.16-12.82 5.03.73 1.87 12.82-5.03 1.66 4.24-12.98 5.09.75 1.89 15.03-5.9-5.91-15.05-15.14 5.94zm28.93-52.02c1.09-.09-2.24-5.84-4.78-7.55-2.57-1.71-6.08-3.11-8.44-4.04-.34-.13-.78-.34-1.3-.64-.16-1.14-.16-2.86-.18-3.14 1.62-3.04 2.29-5.5 3.04-8.61.73-3.02.83-5.9-.22-8.43-.77-1.86-1.35-3.8-1.6-5.9-.04-.3-.17-.57-.26-.85-.07.01-.13.02-.19.03-.12.31-.28.61-.34.91-.26 1.14-.46 2.28-.76 3.43-1.84 7.11-2.41 13.63-1.04 20.04.03.16.07 1.05.09 1.68-1.67-1.04-3.88-2.6-6.64-4.81.01-.58.12-1.58.68-2.76 1.4-.43 2.46-2.54 2.46-5.08 0-2.85-1.34-5.16-2.99-5.16s-2.99 2.31-2.99 5.16c0 2.4.95 4.41 2.24 5-.1.41-.34.99-.93 1.59-2.4-2.01-5.16-4.45-8.26-7.41 1.4-1.13 2.74-2.33 4.01-3.61 2.29-2.29 4.36-4.8 6.17-7.47 1.83-2.7 3.39-5.59 4.66-8.58 1.13-2.67 2.02-5.42 2.67-8.22l.03-.02c.76-4.03 1.49-4.89 2.81-7.52 1.32-2.64-.31-4.83-.31-4.83-.16-.21-.29-.4-.39-.58 0 0-.43-.61-.07-2.51.35-1.9-.2-2.57-.2-2.57-.16-.21-.42-.51-.86-.69-.34-.12-.6-.19-.83-.28-.16-.06-.31-.13-.44-.2-.55-.29-.67-.55-.67-.55-1.05-1.52-.33-1.82-1.01-3.38-.54-1.24-2.09-1.35-2.73-1.34-.08.01-.17.01-.25.01h-.01.01c-.33.01-.67-.01-1.06-.1-.51-.11-1.03-.65-1.57-.4.1-.08.31-.46.31-.46.43-.64-.14-1.95-.22-1.73-.25.58-.73.97-1.29 1.05-.44.06-.75.21-.97.39v-.01c.39-.42.34-1.09.05-1.44-.17-.19-.59-.57-.59-.82-1.27.88-.03 2.77-1.68 3.43-.34.13-.91.31-1.22.87-.85.15-1.56 1.02-1.83 1.53-.25.45-.3.49-.46.58-2.78 1.65-3.52 3.06-3.43 3.52.13.69.6.89.6.89-.01.47.15.99.58 1.3.19.15.41.23.64.26h.01c.13.03.27.04.4.03.15.47.65.81 1.05.85-.23-.25-.45-.6-.47-.95.05-.01.1-.03.14-.04.19.3.56.45.88.42-.19-.16-.4-.38-.47-.65.16-.13.36-.31.51-.6l.01.01c.16.12.85.5 1.29.73.49.26.43.83.54 1.53.16 1.04-.16.81-.73.91-.28-.16-.43-.49-.5-.78-.16.27-.17.65.01.96-.04.02-.08.04-.13.07-.01.01-.01.01-.02.01-.28-.18-.49-.49-.61-.79-.12.35-.05.87.23 1.21-.11.21-.16.45-.13.67.09.49.73 1.11 1.74.95.94-.15 1.85-.65 2.45-1.32v.01s.02-.04.07-.09l.07-.07c.02-.02.04-.04.06-.07.28-.29.73-.74 1.46-.41.88.48.4 1.62.4 1.62l-.04.46c-3.17 6.85-10.13 11.63-18.19 11.63-2.66 0-5.19-.52-7.52-1.46.66-.71 1.54-1.74 2.5-3.04.86-1.06 3.12-3.38 4.86-1.03 1.54 2.09 3.24 1.23 3.24 1.23.43-.26.11-.84.11-.84s-.34-.6.64-.13c1 .47 1.79.53 2.4.16.61-.37-.07-1.05-.11-1.23-.04-.18-.2-.49 1.55-.5 1.75-.01 1.56-.75 1.2-1.28-.37-.53-.26-.54.06-.88.32-.34 1.18-.73.83-1.76-.33-.97-.93-.67-.97-.67-.04 0-.67.29-.87.16-.1-.07-.24-.4-.1-1.05.17-.82-.78-.94-1.34-.53-.4.28-.88.89-1.37 1.07-.49.18-.44-.24-.49-.59-.03-.22-.03-.88-.94-.34-.91.54-1.41 1.92-1.41 1.92s-.33.64-.6-.19c-.24-.76-1.73-.53-1.72.9 0 0 .02.99-.83 1.62-.27.2-1.25.43-1.91.58 1.18-1.97 2.32-4.26 3.19-6.82 1.29-3.78 2.05-7.07 3.22-9.89.71-.33 1.67-.53 2.09-.61.25 1.53 1.38 1.85 2.26 1.84l-.02-.45c.81-.05 4.25-.41 4.02-2.64 0 0-.07-2.12-4.2-1.3l-.02-.43s-1.91.18-2.07 2.12c-.71.34-1.2.27-1.47.17.16-.34.34-.67.52-.99 1.23-1.78 4.37-5.09 10.71-5.18l4.35-.06v-.01s1.17-.01 1.59.59c.95 1.37 2.07 4.09 3.76 4.43 1.85.37 1.01-1.34 1.01-1.34s-.34-.9.5-.12c1.25 1.14 2.32 2.27 3.06 2 .74-.27.41-1.23.41-1.23s-.29-1.18 1.01.06 2.48 1.7 3.52 1.33c1.05-.37.29-1.86.3-2.19.01-.32-.11-.93 2.51-.19s2.62-.62 2.27-1.69c-.34-1.07-.19-1.05.43-1.5s3.05-1.11 2.92-3.04c-.13-1.82-2.14-1.2-2.2-1.22-.06-.01-1.1.22-1.36-.1-.13-.16-.2-.81.25-1.86.57-1.35-.8-1.96-1.8-1.5-.7.32-1.65 1.17-2.45 1.26-.8.1-.56-.61-.51-1.23.04-.39.29-1.54-1.27-1-1.56.55-2.83 2.72-2.83 2.72s-.49.63-.49-.58c-.01-1.21-1.46-.45-2.66.72s-1.6 1.2-1.59.44c.01-.76-.48-1.17-1.69-.4-1.77 1.12-2.38 3.78-4.68 4.08l-.05.01c-.53.01-5.13.16-8.22.74 2.87-1.44 5.04-2.27 6.92-3.16l.43-.24s1.88-.87 5.04-3.76l.01-.01c1.8-1.43 4.17-3.11 5.48-3.12 2.77-.04 4.12.15 4.12.15 2.24.04 3.92.02 4.57-.85.65-.88-.41-1.53-.41-1.53s-1.18-.89 1.2-.79 4.04-.44 4.98-1.66c.94-1.23-1.01-2.02-1.23-2.34-.22-.31-.79-.79 2.72-2.27 3.52-1.49 2.54-2.77 1.38-3.51s-.97-.85-.58-1.78c.38-.94 1.8-2.42.26-4.15-1.45-1.62-2.72-.7-2.8-.67-.08.04-1.1 1.12-1.62 1.03-.25-.04-.81-.6-1.05-1.98-.31-1.76-2.32-1.2-3.13.06-.57.89-1.05 2.48-1.89 3.25-.85.76-1.08-.11-1.47-.76-.24-.4-.77-1.71-2.16.1-1.39 1.82-1.27 4.96-1.27 4.96s.03 1.03-.98-.15c-.95-1.1-2.59.3-2.52 2.9 0 0 .25 6.63 0 7.73-.25 1.06-4.94 4.89-5.35 5.3-.94.77-2.07 1.61-3.49 2.51-1.67.9-3.34 1.5-6.03 2.72l.16-.32v-.01l1.41-2.93h-.01l.06-.12s.2-.73.89-1.23c1.3-.95 4.13-1.05 4.8-2.56.74-1.65-.98-1.24-.98-1.24s-.88.13 0-.5c1.3-.93 2.55-1.68 2.47-2.44-.08-.76-1.02-.66-1.02-.66s-1.13.01.28-.94 2.07-1.95 1.98-3.02c-.1-1.07-1.61-.68-1.9-.76-.28-.08-.86-.1.38-2.4 1.23-2.3.02-2.6-1.02-2.51-1.04.09-.98-.05-1.25-.73-.26-.67-.22-2.09-1.98-2.39-1.66-.28-1.65.73-1.68.78-.03.05-.05 1.08-.39 1.26-.16.08-.76.01-1.62-.64-1.08-.83-1.94.32-1.74 1.36.13.73.68 1.81.59 2.58-.09.77-.67.4-1.22.21-.34-.12-1.32-.61-1.17.97.14 1.59 1.83 3.26 1.83 3.26s.46.6-.64.34c-1.09-.26-.73 1.27.06 2.66.79 1.38.73 1.77.04 1.59-.68-.18-1.16.19-.73 1.5.62 1.91 3.07 2.84 2.63 5.45 0 0-.42 2.66-4.58 5.65-.25.16-.49.32-.71.49-.7.52-1.33 1.08-1.89 1.68-.16-.52-.47-1.56-.24-2.06.29-.63 2.04-3.08 2.04-3.08.67-1.42.39-2.81-.4-2.58-.79.22-.55-.34-.55-.34s1-1.59.85-3.12c-.16-1.53-.82-1.08-1.06-.98-.39.17-.77.52-.97-.23s.04-1.79.02-2.49c-.03-1-.88-2.14-1.57-1.37-.54.61-.99.67-1.13.58-.29-.18-.48-1.17-.51-1.23-.03-.05-.19-1.03-1.42-.79-1.3.24-1.03 1.62-1.12 2.27-.09.65-.02.79-.84.67-.81-.11-1.69.14-.36 2.41 1.34 2.27.9 2.27.7 2.34-.21.07-1.44-.34-1.33.7.1 1.04.79 2.03 2.02 2.99 1.24.96.37.92.37.92s-.73-.12-.67.61c.07.73 1.15 1.5 2.3 2.43 0 0 .12.09.46.31.08.05.19.11.3.19.49.31 1.4.94 1.58 1.39 0 .01.01.01.01.02s.01.01.01.01c.18.59.41.94-.41 3-1.94 3.25-2.98 7.34-4.56 12.13-.32.97-.7 1.92-1.11 2.82-.3-.67-1.55-3.86.6-6.55 0 0 .67-.75.22-1.27s-1.12-.35-1.12-.35-.78.31-.34-.55c.43-.86 1.59-1.71 1.76-2.18s.12-1-.57-1.16c-.69-.16-1.13-.26-.44-1.09.69-.83.9-1.32.7-1.71-.21-.4-.8-.82-1.64-.33-.83.49-1.17.7-1.21-.58-.04-1.29-1-1.57-1.25-1.56-.25.01-1.58-.16-1.2 1.77.29 1.5-1.14.83-1.14.83s-.55-.22-.79.28-.16 1.16.46 1.95c.61.79-.68.61-.68.61s-.67-.24-1.04.51c0 0-.48.79 2.15 3.22 1.48 1.37-.37 1.42-.37 1.42s-.89-.16-.55.99c.34 1.15 2.09 1.94 2.09 1.94s2.73.85 3.14 4.12c.05.97-.09 2.22-.82 3.52-.16.25-.31.49-.46.73-1.9 2.92-3.88 5.09-4.92 6.15-.49-.26-.97-.55-1.44-.85v-46.1l-.75-.13c-3.19-.55-6.23-.79-8.88-.84v-4.31c1.95-.49 3.52-1.93 4.19-3.8 11.1 1.92 10.31 11.83 10.31 11.83 13.45-14.9-.02-27.69-.02-27.69-.25 9.16-6.73 11.2-10.35 11.66-.74-1.89-2.42-3.31-4.46-3.7.02-1.53.52-6.19 5.49-7.5 0 0-5.07-1.35-6.57-9.4-1.5 8.06-6.57 9.4-6.57 9.4 4.95 1.3 5.46 5.94 5.49 7.48-2.42.42-4.35 2.3-4.83 4.69-1.99-.32-5.45-1.49-6.55-5.66 0 0-1.35 5.37-9.4 6.88 8.06 1.5 9.4 6.88 9.4 6.88 1.1-4.17 4.57-5.34 6.55-5.66.47 2.29 2.24 4.1 4.5 4.62v4.28c-.99.02-1.89.07-2.69.11-3.7.24-6.02.71-6.11.73l-.72.15v45.98c-.79.51-1.61.97-2.45 1.36-.66-.65-2.39-2.42-4.23-4.98.06-.3.22-.68.59-1.14 1.07.16 2.33-1.08 2.9-2.9.61-1.92.19-3.76-.91-4.12-1.11-.34-2.49.94-3.1 2.86-.5 1.61-.3 3.16.43 3.83-.12.16-.31.34-.58.52-1.05-1.55-2.12-3.34-3.02-5.3.2-.79.61-1.83.67-2.02 1.71-1.39 2.63-2.86 3.85-4.61 1.17-1.7 2.08-3.48 2.1-5.51.01-1.48.16-2.95.55-4.4.05-.21.04-.43.06-.64-.04-.01-.08-.03-.12-.04-.14.16-.31.3-.43.47-.44.64-.84 1.32-1.3 1.95-2.86 3.95-4.83 7.98-5.63 12.62-.01.1-.16.52-.29.91-.24-.6-.47-1.21-.67-1.84-.74-2.25-1.32-4.32-1.92-6.23l1.34-4.44c.93-3.37 2.72-11.93 3.58-15.34.41-1.63.39-3.37-.02-5.15-.07-.33-.27-.64-.42-.98-.39.7-.74 1.98-1.07 2.56-1 1.74-1.42 3.05-2.41 4.8-.74 1.32-1.15 2.81-1.38 4.39-.58 3.85-.55 7.06.17 11.07.03.19-.24.85-.36 1.31-.96-2.74-2.08-5.09-3.97-7.07-.33-.76-.6-1.96-.58-2.4.08-1.97.1-3.94.24-5.91.44-6.58-1.01-12.79-3.31-18.85-.16-.41-.39-.79-.59-1.17-.25.32-.31.59-.34.87-.15 1.12-.2 2.26-.46 3.36-.51 2.18-1.06 4.35-1.71 6.5-.72 2.42-.52 4.74.42 7.03 1.27 3.08 2.65 5.41 4.59 8.07.22.29.36.77.44 1.31-.88-.71-1.89-1.36-3.06-1.96-.82-.42-1.61-.79-2.36-1.11-2.31-1.09-3.09-2.22-3.52-3.31-1.31-3.3-2.78-6.54-4-9.88-2.52-6.94-7.18-11.84-13.59-15.01-1.8-.89-3.88-1.21-5.86-1.7-.44-.11-.99.19-1.67.34.81.64 1.41 1.03 1.89 1.53 1.83 1.92 3.7 3.81 5.42 5.81 2.73 3.17 5.41 6.4 8.04 9.67 2.23 2.77 4.29 5.65 7.6 7.31.01.01.02.01.03.01 0 0 .01 0 .01.01 0 0 .01 0 .01.01.1.06.54.39 1.05 2.07 0 0 .28.79-.62.55-.64-.16-1.55-.59-2.02-.82-.84-.43-1.66-.87-2.53-1.22-1.8-.73-3.63-1.38-5.48-1.95-5.16-1.61-7.06-2.48-12.5-2.91-2.04-.16-4.12.16-6.43.26 1.42 1.7 5.28 4.18 7.38 4.78 6.86 1.95 10.63 1.9 17.76 2.16 1.84.07 3.51.48 5.12 1.26.88.49 1.38 1.2 3.43 2.29.01 0 .01.01.01.01.07.04.13.07.21.11-1.03.22-3.44.82-3.85.48-1.76-1.44-4.31-1.11-6.84-.41-7 1.94-14.01 3.75-21.02 5.62-.51.13-1.02.4-1.53.6-.01.08-.02.17-.04.25.36.1.7.25 1.07.3 6.5.91 13.19.84 20.13-.93 1.57-.4 3.16-1.37 4.72-2.16.85-.43 1.68-.95 2.45-1.57 1.2-.85 5.21-1.11 7.12-1.02 5.84 3.34 7 8.19 8.93 14.66-.45-.37-1.08-.88-1.12-.96-1.53-3.52-3.58-5.63-6.52-8.17-.47-.41-.91-.86-1.37-1.28-.12-.11-.28-.19-.42-.28-.03.02-.05.04-.08.07.05.16.09.34.17.5.58 1.07.98 2.21 1.29 3.37.42 1.6 1.45 2.83 2.67 3.94 1.26 1.14 2.07 1.98 3.63 2.74.33.17 1.57 1.17 2.3 1.91.16.5.32 1.01.49 1.53 1.35 4.09 3.46 7.52 5.33 10.03-1.16-.58-4.29-3-4.86-3.43-.69-.52-1.4-1.01-2.21-1.23-2.14-.57-4.29-1.14-6.43-1.71-.1-.03-.2-.01-.39-.03.12.19.18.32.27.43.34.38.66.78 1.03 1.11 1.5 1.32 3.16 2.32 4.88 3.14 1.12.53 6.09 2.13 8.39 2.63 1.05 1.32 1.97 2.32 2.58 2.94-2.16.76-4.47 1.17-6.83 1.17-2.73 0-5.38-.53-7.88-1.57-2.41-1-4.57-2.45-6.43-4.28-1.85-1.82-3.29-3.94-4.31-6.29-.1-.31-.25-1.1.44-1.48.73-.34 1.18.12 1.46.41.02.02.04.04.06.07l.07.07c.04.05.07.09.07.09v-.01c.61.67 1.52 1.17 2.45 1.32 1.01.16 1.65-.46 1.74-.95.03-.22-.01-.46-.13-.67.28-.34.34-.86.23-1.21-.11.29-.32.61-.61.79-.01-.01-.01-.01-.02-.01-.04-.03-.09-.05-.13-.07.18-.3.16-.68.01-.96-.07.28-.22.61-.5.78-.57-.1-.89.13-.73-.91.11-.7.04-1.26.54-1.53.43-.23 1.12-.61 1.29-.73l.01-.01c.15.28.34.47.51.6-.07.27-.28.49-.47.65.31.03.68-.12.88-.42.04.01.09.03.14.04-.02.36-.24.71-.47.95.4-.04.91-.37 1.05-.85.13.01.27 0 .4-.03h.01c.23-.04.45-.12.64-.26.43-.32.59-.83.58-1.3 0 0 .46-.19.6-.89.1-.46-.65-1.88-3.43-3.52-.16-.1-.21-.13-.46-.58-.27-.52-.98-1.38-1.83-1.53-.31-.56-.88-.73-1.22-.87-1.65-.66-.41-2.54-1.68-3.43 0 .25-.41.63-.59.82-.3.35-.34 1.03.05 1.44v.01c-.22-.18-.53-.33-.97-.39-.55-.07-1.05-.46-1.29-1.05-.09-.22-.67 1.09-.22 1.73 0 0 .22.38.31.46-.55-.25-1.05.29-1.57.4-.39.08-.73.1-1.06.1h-.01c-.09 0-.17-.01-.25-.01-.63-.01-2.18.1-2.73 1.34-.69 1.57.04 1.87-1.01 3.38 0 0-.12.25-.67.55-.13.07-.27.14-.44.2-.23.09-.5.16-.83.28-.44.18-.7.48-.86.69 0 0-.55.67-.2 2.57.35 1.91-.07 2.51-.07 2.51-.1.18-.22.37-.39.58 0 0-1.63 2.18-.31 4.83 1.1 2.2 1.79 3.16 2.42 5.76.67 3.4 1.68 6.71 3.04 9.93 1.26 2.99 2.84 5.88 4.66 8.58 1.81 2.68 3.88 5.19 6.17 7.47 1.35 1.35 2.77 2.62 4.26 3.8-3.4 3.24-6.4 5.84-8.95 7.92-.58-.72-2.36-3.37-1.25-7.75 0 0 .48-1.36-.49-1.91-.97-.55-1.86.03-1.86.03s-.92.8-.85-.62 1.21-3.16 1.14-3.92c-.07-.76-.46-1.46-1.56-1.38-1.1.08-1.8.16-1.34-1.33.46-1.5.46-2.29-.1-2.75s-1.69-.79-2.58.3c-.89 1.08-1.24 1.55-2.12-.25-.88-1.8-2.45-1.75-2.81-1.62-.36.13-2.39.52-.61 3.08 1.38 1.99-1.31 1.77-1.31 1.77s-.94-.07-.97.78c-.01.84.52 1.71 1.91 2.56 1.39.84-1.05 1.35-1.05 1.35s-1.44.31-.89 1.46c0 0-.01.92 5.34 3.12 3.02 1.24.39 2.19.39 2.19s-1.39.19-.16 1.66c1.22 1.47 4.46 1.71 4.46 1.71s2.14.03 5.36 2.61c-3.47 2.72-6.02 4.35-7.61 5.18-.33-.2-.88-.65-1.27-1.53 2.06-1.72.46-3.96.46-3.96l-.49.36c-2.63-4.25-4.72-2.76-4.72-2.76-2.32 1.41-.03 4.71.71 5.68l-.42.3c.73.85 1.95 1.73 3.55.97.28.44.58 1.05.63 1.63-2.33.92-5.5 2.23-7.86 3.8-2.54 1.71-5.88 7.46-4.8 7.54 1 .07 5.21-2.6 14.11-9.02.91.07 1.85.7 2.34 1.08-.04.08-.09.16-.13.25-1 2.04.14 3.34 1.21 4.06l.33-.55c1.28.77 5.13 2.81 6.55.28 0 0 1.61-2.42-3.76-4.95l.29-.49s-2.08-1.14-3.71.38c-1.05-.42-1.41-.91-1.53-1.22.34-.25.68-.5 1.03-.76 2.34-1.71 4.48-3.38 6.4-4.94 2.27 2.15 2.46 3.9 2.46 3.9s.29 2.73 1.72 3.13c1.25.35 1.48-.61 1.48-.61s.94-2.34 1.98-.3c1.97 3.85 3.24 3.48 3.24 3.48.97-.19 1.06-1.15 1.06-1.15s.31-2.53 1.13-1.64c.82.89 1.65 1.49 2.4 1.24s.65-1 .65-1-.18-2.31 1.53-2.1c2.45.31 2.71-.81 2.81-1.14.1-.33.08-1.8-1.57-2.01-1.65-.2-1.54-.43-.61-1.46s.77-1.53.33-1.84c-.44-.31-1.15-.1-2.47.7-1.32.79-1.28.2-1.26-.71.03-.91-.62-1.04-1.3-.88-.68.16-2.18 1.57-3.46 2.03s-.6-.52-.6-.52.47-.88-.06-1.51c-.53-.64-1.73.13-1.73.13-3.21 1.77-5.3 1.41-6.28 1.04 4.67-3.89 7.76-6.93 8.86-8.04.61.45 1.22.89 1.85 1.31 2.7 1.83 5.59 3.39 8.58 4.66 2.9 1.23 5.88 2.17 8.93 2.83v22.58l.75.13c3.17.56 6.2.79 8.84.85l-2.45 5.05 3.88 9.23 3.88-9.23-2.45-5.05c.98-.02 1.88-.07 2.68-.12 3.7-.24 6.02-.72 6.11-.74l.72-.15V175.9c2.88-.65 5.7-1.56 8.44-2.72 2.99-1.26 5.88-2.84 8.58-4.66.72-.49 1.42-.99 2.12-1.51.58.6 3.49 3.56 8.22 7.58-.7.05-1.53.13-2.13.16-4.24.01-4.19-.88-6.8-.79-1.07.04-2.07.19-2.93.55-1.14.49-2.26 1-3.39 1.5-.38.16-.77.32-1.23.51.24.11.47.25.7.33 1.25.38 2.45.52 3.55.38 2.28-.3 8.06-.8 10.32-1.14l3.13-.49c1.94 1.62 4.15 3.37 6.58 5.19-2.86-.14-7.18-.74-8.13-.85-1.47-.17-2.93-.27-4.38.16-3.84 1.17-7.68 2.32-11.52 3.49-.18.05-.34.16-.65.33.32.19.51.35.73.43.8.28 1.59.62 2.41.79 3.31.68 6.65.69 9.99.33 1.87-.2 8.93-1.91 13.43-3.3 9.95 7.33 14.66 10.37 15.72 10.29zM123.79 90.94c.94-.16 2.78-.42 5.18-.57 3.15-.2 7.93-.25 13.18.58v43.28c-4.52-3.66-7.41-9.25-7.41-15.49V112h5.49v-3.7h-5.49v-3.69h3.69v-3.7h-3.69v-4.36h-3.64v4.36h-3.69v3.7h3.69v3.69h-5.49v3.7h5.49v7.84c-.28 5.06-2.48 9.77-6.2 13.3-.36.34-.73.67-1.11.98V90.94zm18.26 106.07c-.94.16-2.75.42-5.14.58-3.16.21-7.95.26-13.21-.58v-20.7c2.93.52 5.91.79 8.93.79 3.19 0 6.34-.29 9.42-.88v20.79zm17.82-30.05c-2.6 1.76-5.39 3.27-8.28 4.49-6.01 2.54-12.38 3.83-18.96 3.83s-12.96-1.29-18.96-3.83c-2.89-1.22-5.67-2.73-8.28-4.49-2.58-1.74-5.01-3.74-7.21-5.95-2.21-2.21-4.2-4.63-5.95-7.21-1.76-2.6-3.27-5.39-4.49-8.28-.71-1.68-1.32-3.38-1.83-5.12l.01.01s-.39-1.65-.56-2.92c-.19-1.23-.07-1.98.45-1.96.51.01.58.77.58.77.01.08.04.18.05.28.22 1.66 1.78 2.32 1.78 2.32-.74-2.15-.59-3.19-.59-3.19s.12-1.09.95-.86c1.03.29.68 3.3.68 3.3.76-.64 1.56-2.01 1.2-3.22 0-.01-.01-.01-.01-.02-.28-.79-.25-1.11-.25-1.11s0-.76.46-.79c.46-.03.37.57.37.57-.01.54.08.84.12.96.13.34.4.53.91.87 1.2.78 2.44.52 2.44.52s-1.83-.72-2-2.02c-.11-.89.23-1.79.22-2.4l-.04-.56c.78 1.14 1.67 2.2 2.67 3.19 2.02 2 4.38 3.57 7 4.66 2.72 1.14 5.6 1.71 8.57 1.71 5.71 0 11.12-2.15 15.24-6.05 2.75-2.61 4.74-5.81 5.83-9.34l.94-2.67 1.08 3.04v-.02c2.84 8.72 11.07 15.04 20.76 15.04 7.38 0 13.92-3.67 17.87-9.29l-.01.22c-.01.61.33 1.52.22 2.4-.16 1.29-2 2.02-2 2.02s1.24.25 2.44-.52c.52-.34.77-.52.91-.87.04-.12.13-.42.12-.96 0 0-.09-.6.37-.57.46.03.46.79.46.79s.03.33-.25 1.11c0 .01-.01.01-.01.02-.37 1.21.44 2.57 1.2 3.22 0 0-.34-3.01.68-3.3.84-.24.95.86.95.86s.14 1.05-.59 3.19c0 0 1.55-.67 1.78-2.32.01-.1.03-.19.05-.28 0 0 .07-.76.58-.77.51-.01.64.73.45 1.96-.12.89-.35 1.97-.47 2.54-.54 1.89-1.19 3.73-1.96 5.55-1.22 2.89-2.73 5.67-4.49 8.28-1.74 2.58-3.74 5.01-5.95 7.21-2.25 2.21-4.68 4.21-7.25 5.96z"/><path fill="#fff" class="st0" d="M145.26 164.06c-1.32 0-2.43-.67-4.04-2.81-1.71-2.27-3.06-3.37-5.24-4.03v-.13h5.12c2.65 0 3.06.54 3.7 3.5h.91v-8.26h-.91c-.6 2.87-1.01 3.53-3.7 3.53h-3.7v-.1c2.36-.67 3.66-2.05 3.66-4 0-2.78-2.62-4.44-7.95-4.44h-.99l.01-3.22h5.33c5.39 0 6.31.67 7.58 5.14h1.01l-.28-6.34h-20.11v1.01l1.61.16c1.71.16 1.77.47 1.77 2.93v.31h-11.05v1.01l1.64.16c1.71.16 1.77.47 1.77 2.93l-.03 9.64c0 2.46-.06 2.78-1.77 2.93l-1.64.16v1.01h9.66v-1.01L126 164c-1.71-.16-1.77-.47-1.77-2.93v-3.97h4.78l-.01 8.38c0 2.46-.07 2.78-1.77 2.93l-1.61.16v1.01h9.85v-1.01l-1.61-.16c-1.71-.16-1.77-.47-1.77-2.93v-8.38c2.01.01 2.65.42 4.07 2.24.79 1.01 1.48 2.02 2.18 2.99 1.35 2.08 3.03 3.46 5.59 3.46 1.64 0 2.97-.63 3.98-1.7l-.6-.79c-.59.51-1.26.76-2.05.76zm-16.24-8.19h-4.79l.03-7.34h4.77l-.01 7.34zm4.12 0h-1.05l.02-7.34h1.11c3.1 0 4.61 1.48 4.61 3.62.01 2.11-1.54 3.72-4.69 3.72zm-.33 99.95c-1.71-.02-3.11 1.35-3.13 3.05-.02 1.71 1.35 3.11 3.05 3.13 1.71.02 3.11-1.35 3.13-3.05.03-1.71-1.33-3.11-3.05-3.13z"/></svg>